<svg width="71" height="55" viewBox="0 0 71 55" fill="none" xmlns="http://www.w3.org/2000/svg">
<path d="M62.8831 50.0996C63.8713 50.0996 64.4055 50.8341 64.4055 51.7422V53.4649H63.7445V51.849C63.7445 51.2547 63.4507 50.7339 62.8364 50.7339C62.2421 50.7339 61.9416 51.2347 61.9416 51.8357V53.4649H61.2805V51.8357C61.2805 51.2347 60.9801 50.7339 60.3724 50.7339C59.7581 50.7339 59.4844 51.2547 59.4844 51.849V53.4649H58.8233V51.7489C58.8233 50.8341 59.3441 50.0996 60.3257 50.0996C60.9801 50.0996 61.4542 50.4334 61.6211 50.9409C61.8014 50.4334 62.2621 50.0996 62.8831 50.0996Z" fill="#113441"/>
<path d="M56.4976 52.904C57.1052 52.904 57.4391 52.3765 57.4391 51.7689V50.1931H58.1001V51.849C58.1001 52.7972 57.5259 53.5451 56.4976 53.5451C55.4826 53.5451 54.9084 52.7905 54.9084 51.8424V50.1931H55.5694V51.7756C55.5694 52.3765 55.8966 52.904 56.4976 52.904Z" fill="#113441"/>
<path d="M53.0437 53.5384C52.4361 53.5384 51.9687 53.298 51.7149 52.8106L52.2224 52.5301C52.3894 52.8573 52.6564 52.9775 53.017 52.9775C53.3909 52.9775 53.6781 52.8239 53.6781 52.5368C53.6781 51.849 51.8018 52.3699 51.8018 51.1212C51.8018 50.547 52.3092 50.1263 53.0237 50.1263C53.6313 50.1263 54.0453 50.4067 54.2523 50.7873L53.7448 51.0745C53.6046 50.7873 53.3375 50.6872 53.037 50.6872C52.7299 50.6872 52.4628 50.8474 52.4628 51.1079C52.4628 51.7756 54.3391 51.2881 54.3391 52.5234C54.3391 53.1444 53.7382 53.5384 53.0437 53.5384Z" fill="#113441"/>
<path d="M48.5045 54.9673H47.8434V51.8223C47.8434 50.8474 48.598 50.1129 49.5862 50.1129C50.5744 50.1129 51.3223 50.8875 51.3223 51.8223C51.3223 52.8106 50.6078 53.5451 49.6129 53.5451C49.1722 53.5451 48.7716 53.3514 48.5045 53.0576V54.9673ZM49.5862 52.9241C50.1938 52.9241 50.6613 52.4233 50.6613 51.829C50.6613 51.228 50.1938 50.7406 49.5862 50.7406C48.9719 50.7406 48.5045 51.228 48.5045 51.829C48.5045 52.4233 48.9719 52.9241 49.5862 52.9241Z" fill="#113441"/>
<path d="M46.3058 50.193H46.9668V53.4649H46.3058V50.193Z" fill="#113441"/>
<path d="M55.2228 47.207C50.1718 47.207 46.3188 43.3216 46.3188 38.5944C46.3188 33.8995 50.1718 30.0141 55.2228 30.0141C60.2738 30.0141 64.1269 33.8995 64.1269 38.5944C64.1269 43.3216 60.2738 47.207 55.2228 47.207ZM55.2228 41.7351C57.0684 41.7351 58.2988 40.3104 58.2988 38.6267C58.2988 36.9107 57.0684 35.486 55.2228 35.486C53.3772 35.486 52.1469 36.9107 52.1469 38.6267C52.1469 40.3104 53.3772 41.7351 55.2228 41.7351Z" fill="#113441"/>
<path d="M35.3139 54.654C31.299 54.654 28.3849 52.8732 26.8955 49.7001L31.7199 47.1099C32.238 48.2107 33.2093 49.344 35.2168 49.344C37.3214 49.344 38.7136 48.0165 38.8755 45.6852C38.0984 46.3652 36.8681 46.8832 35.0225 46.8832C30.5219 46.8832 26.8955 43.4187 26.8955 38.562C26.8955 33.8671 30.7486 30.0465 35.7996 30.0465C40.9801 30.0465 44.7036 33.6405 44.7036 38.5944V45.0053C44.7036 50.8334 40.6563 54.654 35.3139 54.654ZM35.7024 41.4113C37.4509 41.4113 38.7784 40.2133 38.7784 38.4325C38.7784 36.684 37.4509 35.5184 35.7024 35.5184C33.9864 35.5184 32.6265 36.684 32.6265 38.4325C32.6265 40.2133 33.9864 41.4113 35.7024 41.4113Z" fill="#113441"/>
<path d="M17.0088 47.207C11.9577 47.207 8.10471 43.3216 8.10471 38.5944C8.10471 33.8995 11.9577 30.0141 17.0088 30.0141C22.0598 30.0141 25.9128 33.8995 25.9128 38.5944C25.9128 43.3216 22.0598 47.207 17.0088 47.207ZM17.0088 41.7351C18.8543 41.7351 20.0847 40.3104 20.0847 38.6267C20.0847 36.9107 18.8543 35.486 17.0088 35.486C15.1632 35.486 13.9328 36.9107 13.9328 38.6267C13.9328 40.3104 15.1632 41.7351 17.0088 41.7351Z" fill="#113441"/>
<path d="M0 23.0851H5.8281V46.7213H0V23.0851Z" fill="#113441"/>
<path d="M70.7335 32C70.7335 33.1046 69.8381 34 68.7335 34C67.6289 34 66.7335 33.1046 66.7335 32C66.7335 30.8954 67.6289 30 68.7335 30C69.8381 30 70.7335 30.8954 70.7335 32Z" fill="#113441"/>
<path fill-rule="evenodd" clip-rule="evenodd" d="M54.7898 9.66547C60.5505 15.4262 63.9614 23.0975 64.4056 31.19C62.7602 29.2549 60.4743 27.8554 57.8447 27.2904C56.7563 22.2602 54.2426 17.6037 50.5471 13.9081C45.4836 8.84464 38.616 6 31.4552 6C24.2943 6 17.4268 8.84464 12.3633 13.9081C10.5193 15.7522 8.96951 17.8355 7.74426 20.0851H1.0874C2.72693 16.2299 5.10099 12.6852 8.12073 9.66547C14.3094 3.47678 22.7031 0 31.4552 0C40.2074 0 48.6011 3.47678 54.7898 9.66547ZM8.82827 30.15V30.15C10.2235 28.8707 11.9414 27.9184 13.8602 27.4159C11.9414 27.9184 10.2235 28.8707 8.82827 30.15ZM16.4151 27.0279C16.6117 27.0187 16.8097 27.0141 17.0089 27.0141C17.0089 27.0141 17.0089 27.0141 17.0089 27.0141C16.8097 27.0141 16.6117 27.0187 16.4151 27.0279ZM26.4009 31.4434C26.4009 31.4434 26.4009 31.4434 26.4009 31.4434C27.9208 29.5602 30.0379 28.1594 32.4866 27.4881C30.0379 28.1594 27.9208 29.5602 26.4009 31.4434ZM35.086 27.0663C35.3221 27.0531 35.5601 27.0465 35.7998 27.0465C35.7998 27.0465 35.7998 27.0465 35.7998 27.0465C35.56 27.0465 35.3221 27.0531 35.086 27.0663ZM45.5674 31.7846C45.5674 31.7846 45.5675 31.7846 45.5675 31.7847C46.3726 30.7009 47.3671 29.76 48.5063 29.0068C47.3671 29.76 46.3726 30.7008 45.5674 31.7846ZM54.4785 27.0359C54.7246 27.0214 54.9728 27.0141 55.223 27.0141C55.223 27.0141 55.223 27.0141 55.2229 27.0141C54.9728 27.0141 54.7245 27.0214 54.4785 27.0359Z" fill="#FFD43E"/>
<path fill-rule="evenodd" clip-rule="evenodd" d="M50.547 13.9081C54.2425 17.6037 56.7561 22.2602 57.8446 27.2904C57.0026 27.1095 56.1255 27.0141 55.2228 27.0141C54.0025 27.0141 52.8287 27.1884 51.7256 27.5127C50.7753 24.0025 48.9206 20.767 46.3044 18.1508C42.3661 14.2125 37.0247 12 31.4551 12C25.8856 12 20.5442 14.2125 16.6059 18.1508C13.7164 21.0403 11.7559 24.6851 10.9166 28.6212C10.1615 29.0558 9.46155 29.5692 8.82809 30.15V20.0851H7.74414C8.96938 17.8355 10.5191 15.7522 12.3632 13.9081C17.4267 8.84464 24.2942 6 31.4551 6C38.6159 6 45.4835 8.84464 50.547 13.9081ZM26.4008 31.4434C24.64 29.2494 22.0776 27.6966 19.1171 27.1914C22.0776 27.6966 24.64 29.2494 26.4008 31.4434C26.4008 31.4434 26.4008 31.4434 26.4008 31.4434Z" fill="#EE8E1D"/>
<path d="M46.3059 30.8884C45.8513 27.6906 44.3723 24.7039 42.0618 22.3934C39.2488 19.5804 35.4335 18 31.4552 18C27.477 18 23.6617 19.5804 20.8486 22.3934C19.5014 23.7406 18.4369 25.3177 17.6934 27.0325C21.2525 27.2243 24.3634 28.9046 26.4009 31.4434C28.5727 28.7525 31.9641 27.0465 35.7998 27.0465C39.9095 27.0465 43.4416 28.849 45.5674 31.7847C45.7984 31.4738 46.0449 31.1747 46.3059 30.8884Z" fill="#971C1C"/>
<path fill-rule="evenodd" clip-rule="evenodd" d="M51.7255 27.5127C49.5987 28.1381 47.7346 29.3213 46.3057 30.8884C45.851 27.6906 44.3721 24.7039 42.0616 22.3934C39.2485 19.5804 35.4332 18 31.455 18C27.4767 18 23.6614 19.5804 20.8484 22.3934C19.5012 23.7406 18.4367 25.3177 17.6931 27.0325C17.4667 27.0203 17.2386 27.0141 17.0087 27.0141C14.7721 27.0141 12.6919 27.5996 10.9165 28.6213C11.7557 24.6852 13.7162 21.0403 16.6058 18.1508C20.544 14.2125 25.8855 12 31.455 12C37.0246 12 42.366 14.2125 46.3043 18.1508C48.9205 20.767 50.7752 24.0025 51.7255 27.5127Z" fill="#D62727"/>
</svg>
